<mxfile host="app.diagrams.net" modified="2023-06-20T04:58:21.647Z" agent="Mozilla/5.0 (Macintosh; Intel Mac OS X 10_15_7) AppleWebKit/537.36 (KHTML, like Gecko) Chrome/114.0.0.0 Safari/537.36" etag="0lqx11JU7I0JWeYN2F8p" version="21.5.0" type="google">
  <diagram name="Page-1" id="3sS168nN32Szbk-CCEyU">
    <mxGraphModel grid="1" page="1" gridSize="10" guides="1" tooltips="1" connect="1" arrows="1" fold="1" pageScale="1" pageWidth="827" pageHeight="1169" math="0" shadow="0">
      <root>
        <mxCell id="0" />
        <mxCell id="1" parent="0" />
        <mxCell id="zruOZgZrSh-GHuwcMwu4-1" value="" style="rounded=0;whiteSpace=wrap;html=1;" vertex="1" parent="1">
          <mxGeometry x="210" y="40" width="470" height="650" as="geometry" />
        </mxCell>
        <mxCell id="zruOZgZrSh-GHuwcMwu4-2" value="Customer" style="shape=umlActor;verticalLabelPosition=bottom;verticalAlign=top;html=1;outlineConnect=0;" vertex="1" parent="1">
          <mxGeometry x="60" y="240" width="30" height="60" as="geometry" />
        </mxCell>
        <mxCell id="zruOZgZrSh-GHuwcMwu4-3" style="edgeStyle=orthogonalEdgeStyle;rounded=0;orthogonalLoop=1;jettySize=auto;html=1;exitX=0.5;exitY=0;exitDx=0;exitDy=0;exitPerimeter=0;entryX=1;entryY=0.5;entryDx=0;entryDy=0;endArrow=none;endFill=0;" edge="1" parent="1" source="zruOZgZrSh-GHuwcMwu4-6" target="zruOZgZrSh-GHuwcMwu4-8">
          <mxGeometry relative="1" as="geometry" />
        </mxCell>
        <mxCell id="zruOZgZrSh-GHuwcMwu4-4" style="edgeStyle=orthogonalEdgeStyle;rounded=0;orthogonalLoop=1;jettySize=auto;html=1;exitX=0;exitY=0.3333333333333333;exitDx=0;exitDy=0;exitPerimeter=0;entryX=1;entryY=0.5;entryDx=0;entryDy=0;endArrow=none;endFill=0;" edge="1" parent="1" source="zruOZgZrSh-GHuwcMwu4-6" target="zruOZgZrSh-GHuwcMwu4-11">
          <mxGeometry relative="1" as="geometry" />
        </mxCell>
        <mxCell id="zruOZgZrSh-GHuwcMwu4-5" style="edgeStyle=orthogonalEdgeStyle;rounded=0;orthogonalLoop=1;jettySize=auto;html=1;exitX=0;exitY=1;exitDx=0;exitDy=0;exitPerimeter=0;entryX=1;entryY=0.5;entryDx=0;entryDy=0;endArrow=none;endFill=0;" edge="1" parent="1" source="zruOZgZrSh-GHuwcMwu4-6" target="zruOZgZrSh-GHuwcMwu4-24">
          <mxGeometry relative="1" as="geometry" />
        </mxCell>
        <mxCell id="zruOZgZrSh-GHuwcMwu4-6" value="Admin" style="shape=umlActor;verticalLabelPosition=bottom;verticalAlign=top;html=1;outlineConnect=0;" vertex="1" parent="1">
          <mxGeometry x="770" y="255" width="30" height="60" as="geometry" />
        </mxCell>
        <mxCell id="zruOZgZrSh-GHuwcMwu4-7" value="" style="group" connectable="0" vertex="1" parent="1">
          <mxGeometry x="250" y="65" width="190" height="60" as="geometry" />
        </mxCell>
        <mxCell id="zruOZgZrSh-GHuwcMwu4-8" value="" style="ellipse;whiteSpace=wrap;html=1;" vertex="1" parent="zruOZgZrSh-GHuwcMwu4-7">
          <mxGeometry x="-10" width="190" height="60" as="geometry" />
        </mxCell>
        <mxCell id="zruOZgZrSh-GHuwcMwu4-9" value="&lt;font style=&quot;font-size: 20px;&quot;&gt;Register&lt;/font&gt;" style="text;html=1;strokeColor=none;fillColor=none;align=center;verticalAlign=middle;whiteSpace=wrap;rounded=0;" vertex="1" parent="zruOZgZrSh-GHuwcMwu4-7">
          <mxGeometry x="60" y="15" width="70" height="30" as="geometry" />
        </mxCell>
        <mxCell id="zruOZgZrSh-GHuwcMwu4-10" value="" style="group" connectable="0" vertex="1" parent="1">
          <mxGeometry x="240" y="155" width="190" height="60" as="geometry" />
        </mxCell>
        <mxCell id="zruOZgZrSh-GHuwcMwu4-11" value="" style="ellipse;whiteSpace=wrap;html=1;" vertex="1" parent="zruOZgZrSh-GHuwcMwu4-10">
          <mxGeometry width="190" height="60" as="geometry" />
        </mxCell>
        <mxCell id="zruOZgZrSh-GHuwcMwu4-12" value="&lt;font style=&quot;font-size: 20px;&quot;&gt;View All Gyms&lt;/font&gt;" style="text;html=1;strokeColor=none;fillColor=none;align=center;verticalAlign=middle;whiteSpace=wrap;rounded=0;" vertex="1" parent="zruOZgZrSh-GHuwcMwu4-10">
          <mxGeometry x="30" y="15" width="130" height="30" as="geometry" />
        </mxCell>
        <mxCell id="zruOZgZrSh-GHuwcMwu4-13" value="" style="group" connectable="0" vertex="1" parent="1">
          <mxGeometry x="240" y="245" width="190" height="60" as="geometry" />
        </mxCell>
        <mxCell id="zruOZgZrSh-GHuwcMwu4-14" value="" style="ellipse;whiteSpace=wrap;html=1;" vertex="1" parent="zruOZgZrSh-GHuwcMwu4-13">
          <mxGeometry width="190" height="60" as="geometry" />
        </mxCell>
        <mxCell id="zruOZgZrSh-GHuwcMwu4-15" value="&lt;font style=&quot;font-size: 20px;&quot;&gt;View Slots available&lt;/font&gt;" style="text;html=1;strokeColor=none;fillColor=none;align=center;verticalAlign=middle;whiteSpace=wrap;rounded=0;" vertex="1" parent="zruOZgZrSh-GHuwcMwu4-13">
          <mxGeometry x="30" y="15" width="120" height="30" as="geometry" />
        </mxCell>
        <mxCell id="zruOZgZrSh-GHuwcMwu4-16" value="" style="group" connectable="0" vertex="1" parent="1">
          <mxGeometry x="240" y="335" width="190" height="60" as="geometry" />
        </mxCell>
        <mxCell id="zruOZgZrSh-GHuwcMwu4-17" value="" style="ellipse;whiteSpace=wrap;html=1;" vertex="1" parent="zruOZgZrSh-GHuwcMwu4-16">
          <mxGeometry width="190" height="60" as="geometry" />
        </mxCell>
        <mxCell id="zruOZgZrSh-GHuwcMwu4-18" value="&lt;font style=&quot;font-size: 20px;&quot;&gt;Book Slot&lt;/font&gt;" style="text;html=1;strokeColor=none;fillColor=none;align=center;verticalAlign=middle;whiteSpace=wrap;rounded=0;" vertex="1" parent="zruOZgZrSh-GHuwcMwu4-16">
          <mxGeometry x="50" y="15" width="90" height="30" as="geometry" />
        </mxCell>
        <mxCell id="zruOZgZrSh-GHuwcMwu4-19" value="" style="group" connectable="0" vertex="1" parent="1">
          <mxGeometry x="240" y="525" width="190" height="60" as="geometry" />
        </mxCell>
        <mxCell id="zruOZgZrSh-GHuwcMwu4-20" style="edgeStyle=orthogonalEdgeStyle;rounded=0;orthogonalLoop=1;jettySize=auto;html=1;exitX=1;exitY=0;exitDx=0;exitDy=0;dashed=1;" edge="1" parent="zruOZgZrSh-GHuwcMwu4-19" source="zruOZgZrSh-GHuwcMwu4-21">
          <mxGeometry relative="1" as="geometry">
            <mxPoint x="360" y="-185" as="targetPoint" />
          </mxGeometry>
        </mxCell>
        <mxCell id="zruOZgZrSh-GHuwcMwu4-21" value="" style="ellipse;whiteSpace=wrap;html=1;" vertex="1" parent="zruOZgZrSh-GHuwcMwu4-19">
          <mxGeometry width="190" height="60" as="geometry" />
        </mxCell>
        <mxCell id="zruOZgZrSh-GHuwcMwu4-22" value="&lt;font style=&quot;font-size: 20px;&quot;&gt;Add Slot&lt;/font&gt;" style="text;html=1;strokeColor=none;fillColor=none;align=center;verticalAlign=middle;whiteSpace=wrap;rounded=0;" vertex="1" parent="zruOZgZrSh-GHuwcMwu4-19">
          <mxGeometry x="60" y="15" width="70" height="30" as="geometry" />
        </mxCell>
        <mxCell id="zruOZgZrSh-GHuwcMwu4-23" value="" style="group" connectable="0" vertex="1" parent="1">
          <mxGeometry x="240" y="425" width="190" height="60" as="geometry" />
        </mxCell>
        <mxCell id="zruOZgZrSh-GHuwcMwu4-24" value="" style="ellipse;whiteSpace=wrap;html=1;" vertex="1" parent="zruOZgZrSh-GHuwcMwu4-23">
          <mxGeometry width="190" height="60" as="geometry" />
        </mxCell>
        <mxCell id="zruOZgZrSh-GHuwcMwu4-25" value="&lt;font style=&quot;font-size: 20px;&quot;&gt;Add Gym&lt;/font&gt;" style="text;html=1;strokeColor=none;fillColor=none;align=center;verticalAlign=middle;whiteSpace=wrap;rounded=0;" vertex="1" parent="zruOZgZrSh-GHuwcMwu4-23">
          <mxGeometry x="60" y="15" width="70" height="30" as="geometry" />
        </mxCell>
        <mxCell id="zruOZgZrSh-GHuwcMwu4-26" value="" style="group" connectable="0" vertex="1" parent="1">
          <mxGeometry x="480" y="280" width="190" height="60" as="geometry" />
        </mxCell>
        <mxCell id="zruOZgZrSh-GHuwcMwu4-27" value="" style="ellipse;whiteSpace=wrap;html=1;" vertex="1" parent="zruOZgZrSh-GHuwcMwu4-26">
          <mxGeometry width="190" height="60" as="geometry" />
        </mxCell>
        <mxCell id="zruOZgZrSh-GHuwcMwu4-28" value="&lt;font style=&quot;font-size: 20px;&quot;&gt;Login&lt;/font&gt;" style="text;html=1;strokeColor=none;fillColor=none;align=center;verticalAlign=middle;whiteSpace=wrap;rounded=0;" vertex="1" parent="zruOZgZrSh-GHuwcMwu4-26">
          <mxGeometry x="60" y="15" width="70" height="30" as="geometry" />
        </mxCell>
        <mxCell id="zruOZgZrSh-GHuwcMwu4-29" style="edgeStyle=orthogonalEdgeStyle;rounded=0;orthogonalLoop=1;jettySize=auto;html=1;exitX=0;exitY=0.5;exitDx=0;exitDy=0;endArrow=none;endFill=0;" edge="1" parent="1" source="zruOZgZrSh-GHuwcMwu4-8" target="zruOZgZrSh-GHuwcMwu4-2">
          <mxGeometry relative="1" as="geometry" />
        </mxCell>
        <mxCell id="zruOZgZrSh-GHuwcMwu4-30" style="edgeStyle=orthogonalEdgeStyle;rounded=0;orthogonalLoop=1;jettySize=auto;html=1;exitX=0;exitY=0.5;exitDx=0;exitDy=0;entryX=1;entryY=0.3333333333333333;entryDx=0;entryDy=0;entryPerimeter=0;endArrow=none;endFill=0;" edge="1" parent="1" source="zruOZgZrSh-GHuwcMwu4-11" target="zruOZgZrSh-GHuwcMwu4-2">
          <mxGeometry relative="1" as="geometry" />
        </mxCell>
        <mxCell id="zruOZgZrSh-GHuwcMwu4-31" style="edgeStyle=orthogonalEdgeStyle;rounded=0;orthogonalLoop=1;jettySize=auto;html=1;exitX=0;exitY=0.5;exitDx=0;exitDy=0;entryX=1;entryY=1.167;entryDx=0;entryDy=0;entryPerimeter=0;endArrow=none;endFill=0;" edge="1" parent="1" source="zruOZgZrSh-GHuwcMwu4-14" target="zruOZgZrSh-GHuwcMwu4-2">
          <mxGeometry relative="1" as="geometry" />
        </mxCell>
        <mxCell id="zruOZgZrSh-GHuwcMwu4-32" style="edgeStyle=orthogonalEdgeStyle;rounded=0;orthogonalLoop=1;jettySize=auto;html=1;exitX=0;exitY=0.5;exitDx=0;exitDy=0;endArrow=none;endFill=0;" edge="1" parent="1" source="zruOZgZrSh-GHuwcMwu4-17" target="zruOZgZrSh-GHuwcMwu4-2">
          <mxGeometry relative="1" as="geometry" />
        </mxCell>
        <mxCell id="zruOZgZrSh-GHuwcMwu4-33" style="edgeStyle=orthogonalEdgeStyle;rounded=0;orthogonalLoop=1;jettySize=auto;html=1;exitX=1;exitY=0.5;exitDx=0;exitDy=0;entryX=1;entryY=1;entryDx=0;entryDy=0;entryPerimeter=0;endArrow=none;endFill=0;" edge="1" parent="1" source="zruOZgZrSh-GHuwcMwu4-21" target="zruOZgZrSh-GHuwcMwu4-6">
          <mxGeometry relative="1" as="geometry" />
        </mxCell>
        <mxCell id="zruOZgZrSh-GHuwcMwu4-34" style="edgeStyle=orthogonalEdgeStyle;rounded=0;orthogonalLoop=1;jettySize=auto;html=1;exitX=1;exitY=0;exitDx=0;exitDy=0;entryX=0;entryY=0.5;entryDx=0;entryDy=0;dashed=1;" edge="1" parent="1" source="zruOZgZrSh-GHuwcMwu4-17" target="zruOZgZrSh-GHuwcMwu4-27">
          <mxGeometry relative="1" as="geometry" />
        </mxCell>
        <mxCell id="zruOZgZrSh-GHuwcMwu4-35" style="edgeStyle=orthogonalEdgeStyle;rounded=0;orthogonalLoop=1;jettySize=auto;html=1;exitX=1;exitY=0;exitDx=0;exitDy=0;entryX=0.421;entryY=1;entryDx=0;entryDy=0;entryPerimeter=0;dashed=1;" edge="1" parent="1" source="zruOZgZrSh-GHuwcMwu4-24" target="zruOZgZrSh-GHuwcMwu4-27">
          <mxGeometry relative="1" as="geometry" />
        </mxCell>
        <mxCell id="zruOZgZrSh-GHuwcMwu4-36" value="&amp;lt;&amp;lt;include&amp;gt;&amp;gt;" style="text;html=1;strokeColor=none;fillColor=none;align=center;verticalAlign=middle;whiteSpace=wrap;rounded=0;" vertex="1" parent="1">
          <mxGeometry x="480" y="410" width="60" height="30" as="geometry" />
        </mxCell>
        <mxCell id="zruOZgZrSh-GHuwcMwu4-37" value="&amp;lt;&amp;lt;include&amp;gt;&amp;gt;" style="text;html=1;strokeColor=none;fillColor=none;align=center;verticalAlign=middle;whiteSpace=wrap;rounded=0;" vertex="1" parent="1">
          <mxGeometry x="490" y="495" width="60" height="30" as="geometry" />
        </mxCell>
        <mxCell id="zruOZgZrSh-GHuwcMwu4-38" value="&amp;lt;&amp;lt;include&amp;gt;&amp;gt;" style="text;html=1;strokeColor=none;fillColor=none;align=center;verticalAlign=middle;whiteSpace=wrap;rounded=0;" vertex="1" parent="1">
          <mxGeometry x="400" y="310" width="60" height="30" as="geometry" />
        </mxCell>
        <mxCell id="zruOZgZrSh-GHuwcMwu4-39" style="edgeStyle=orthogonalEdgeStyle;rounded=0;orthogonalLoop=1;jettySize=auto;html=1;exitX=0;exitY=0;exitDx=0;exitDy=0;entryX=1;entryY=0.5;entryDx=0;entryDy=0;startArrow=none;startFill=0;endArrow=block;endFill=1;dashed=1;" edge="1" parent="1" source="zruOZgZrSh-GHuwcMwu4-27" target="zruOZgZrSh-GHuwcMwu4-14">
          <mxGeometry relative="1" as="geometry" />
        </mxCell>
        <mxCell id="zruOZgZrSh-GHuwcMwu4-40" value="&amp;lt;&amp;lt;extend&amp;gt;&amp;gt;" style="text;html=1;strokeColor=none;fillColor=none;align=center;verticalAlign=middle;whiteSpace=wrap;rounded=0;" vertex="1" parent="1">
          <mxGeometry x="450" y="255" width="60" height="30" as="geometry" />
        </mxCell>
        <mxCell id="zruOZgZrSh-GHuwcMwu4-41" style="edgeStyle=orthogonalEdgeStyle;rounded=0;orthogonalLoop=1;jettySize=auto;html=1;exitX=0.5;exitY=0;exitDx=0;exitDy=0;entryX=1;entryY=1;entryDx=0;entryDy=0;dashed=1;" edge="1" parent="1" source="zruOZgZrSh-GHuwcMwu4-27" target="zruOZgZrSh-GHuwcMwu4-11">
          <mxGeometry relative="1" as="geometry">
            <mxPoint x="430" y="200" as="targetPoint" />
          </mxGeometry>
        </mxCell>
        <mxCell id="zruOZgZrSh-GHuwcMwu4-42" style="edgeStyle=orthogonalEdgeStyle;rounded=0;orthogonalLoop=1;jettySize=auto;html=1;exitX=1;exitY=0;exitDx=0;exitDy=0;entryX=1;entryY=1;entryDx=0;entryDy=0;dashed=1;" edge="1" parent="1" source="zruOZgZrSh-GHuwcMwu4-27" target="zruOZgZrSh-GHuwcMwu4-8">
          <mxGeometry relative="1" as="geometry">
            <Array as="points">
              <mxPoint x="643" y="150" />
              <mxPoint x="403" y="150" />
            </Array>
          </mxGeometry>
        </mxCell>
        <mxCell id="zruOZgZrSh-GHuwcMwu4-43" value="&amp;lt;&amp;lt;extend&amp;gt;&amp;gt;" style="text;html=1;strokeColor=none;fillColor=none;align=center;verticalAlign=middle;whiteSpace=wrap;rounded=0;" vertex="1" parent="1">
          <mxGeometry x="510" y="125" width="60" height="30" as="geometry" />
        </mxCell>
        <mxCell id="zruOZgZrSh-GHuwcMwu4-44" value="&amp;lt;&amp;lt;extend&amp;gt;&amp;gt;" style="text;html=1;strokeColor=none;fillColor=none;align=center;verticalAlign=middle;whiteSpace=wrap;rounded=0;" vertex="1" parent="1">
          <mxGeometry x="460" y="220" width="60" height="30" as="geometry" />
        </mxCell>
      </root>
    </mxGraphModel>
  </diagram>
</mxfile>
